<?xml version="1.0" standalone="no"?>
<!DOCTYPE svg PUBLIC "-//W3C//DTD SVG 20010904//EN"
 "http://www.w3.org/TR/2001/REC-SVG-20010904/DTD/svg10.dtd">
<svg version="1.0" xmlns="http://www.w3.org/2000/svg"
 width="512.000000pt" height="512.000000pt" viewBox="0 0 512.000000 512.000000"
 preserveAspectRatio="xMidYMid meet">

<g transform="translate(0.000000,512.000000) scale(0.100000,-0.100000)"
fill="#000000" stroke="none">
<path d="M1355 4964 c-115 -28 -211 -107 -267 -222 l-33 -67 0 -170 0 -170 32
-67 c53 -112 148 -191 268 -222 49 -13 129 -16 453 -16 l394 0 207 -105 c113
-58 219 -105 234 -105 15 0 40 12 59 29 l33 29 3 354 c3 380 -1 436 -45 521
-53 106 -165 192 -281 216 -85 18 -980 13 -1057 -5z m1077 -217 c31 -18 57
-44 75 -75 l28 -47 3 -267 c2 -148 0 -268 -4 -268 -4 0 -67 32 -140 70 l-133
70 -400 0 c-254 0 -419 4 -451 11 -65 14 -133 75 -149 134 -14 51 -14 208 -1
257 20 69 81 122 160 139 19 4 244 7 500 6 l465 -2 47 -28z"/>
<path d="M3784 4749 c-138 -23 -265 -91 -374 -199 -287 -285 -263 -775 52
-1027 l47 -38 -66 -33 c-95 -48 -148 -86 -237 -171 -216 -209 -316 -465 -316
-811 l0 -78 -109 -4 c-99 -3 -112 -5 -135 -27 -14 -13 -28 -36 -31 -52 -7 -32
18 -93 43 -106 9 -4 501 -10 1093 -13 l1076 -5 -615 -923 -616 -922 -340 2
-341 3 -6 220 c-6 189 -11 234 -33 322 -97 384 -335 682 -683 857 -51 25 -96
46 -102 46 -6 0 -11 5 -11 10 0 6 4 10 9 10 23 0 166 127 221 196 270 339 254
821 -37 1144 -95 106 -241 197 -393 245 -112 36 -305 46 -422 22 -355 -74
-621 -341 -693 -696 -23 -112 -16 -294 15 -401 55 -191 187 -378 341 -482 27
-18 48 -35 48 -38 0 -3 -48 -28 -107 -57 -356 -170 -608 -497 -697 -903 -11
-50 -18 -147 -22 -287 l-6 -213 -138 0 c-129 0 -140 -2 -164 -23 -17 -14 -28
-36 -32 -63 -5 -36 -1 -46 25 -75 l30 -34 1794 -3 c1271 -2 1804 0 1831 8 36
10 67 56 737 1060 551 826 700 1057 700 1081 0 22 -10 41 -34 65 -32 32 -38
34 -105 34 l-71 0 0 138 c0 292 -88 521 -276 721 -75 80 -207 178 -291 215
l-42 19 74 69 c88 82 153 181 191 293 26 72 28 93 28 215 0 118 -3 145 -26
213 -111 333 -441 533 -784 476z m196 -199 c327 -52 514 -415 366 -708 -127
-251 -424 -345 -681 -215 -62 32 -162 132 -197 199 -76 142 -77 319 -2 467 56
109 196 219 314 246 96 22 118 23 200 11z m140 -1210 c134 -38 244 -103 346
-205 174 -173 244 -350 244 -621 l0 -124 -806 0 -806 0 4 168 c6 190 20 252
90 382 116 217 314 365 558 416 92 19 274 11 370 -16z m-2284 -144 c215 -69
397 -266 449 -486 21 -92 19 -230 -5 -324 -31 -121 -82 -208 -180 -307 -145
-146 -301 -206 -510 -196 -219 11 -405 116 -526 299 -223 335 -102 795 256
972 124 61 197 77 330 72 77 -3 126 -11 186 -30z m72 -1550 c420 -117 732
-471 791 -900 6 -43 11 -151 11 -242 l0 -164 -1082 2 -1083 3 -3 125 c-8 325
60 569 218 778 161 214 379 352 650 413 127 28 368 21 498 -15z"/>
</g>
</svg>
